<mxfile host="app.diagrams.net" modified="2023-12-03T00:21:55.130Z" agent="Mozilla/5.0 (Macintosh; Intel Mac OS X 10_15_7) AppleWebKit/537.36 (KHTML, like Gecko) Chrome/119.0.0.0 Safari/537.36" etag="bqbY422w1Z7WTEvbPgSR" version="22.1.5" type="github">
  <diagram id="C5RBs43oDa-KdzZeNtuy" name="Page-1">
    <mxGraphModel dx="954" dy="610" grid="1" gridSize="10" guides="1" tooltips="1" connect="1" arrows="1" fold="1" page="1" pageScale="1" pageWidth="827" pageHeight="1169" math="0" shadow="0">
      <root>
        <mxCell id="WIyWlLk6GJQsqaUBKTNV-0" />
        <mxCell id="WIyWlLk6GJQsqaUBKTNV-1" parent="WIyWlLk6GJQsqaUBKTNV-0" />
        <mxCell id="35LLrG8fKLti__jq1KWv-6" value="BodyPart" style="swimlane;fontStyle=1;align=center;verticalAlign=top;childLayout=stackLayout;horizontal=1;startSize=26;horizontalStack=0;resizeParent=1;resizeParentMax=0;resizeLast=0;collapsible=1;marginBottom=0;whiteSpace=wrap;html=1;" vertex="1" parent="WIyWlLk6GJQsqaUBKTNV-1">
          <mxGeometry x="360" y="680" width="230" height="250" as="geometry" />
        </mxCell>
        <mxCell id="35LLrG8fKLti__jq1KWv-7" value="- xCoor : int&lt;br&gt;- yCoor : int&lt;br&gt;- width : int&lt;br&gt;- height : int" style="text;strokeColor=none;fillColor=none;align=left;verticalAlign=top;spacingLeft=4;spacingRight=4;overflow=hidden;rotatable=0;points=[[0,0.5],[1,0.5]];portConstraint=eastwest;whiteSpace=wrap;html=1;" vertex="1" parent="35LLrG8fKLti__jq1KWv-6">
          <mxGeometry y="26" width="230" height="84" as="geometry" />
        </mxCell>
        <mxCell id="35LLrG8fKLti__jq1KWv-8" value="" style="line;strokeWidth=1;fillColor=none;align=left;verticalAlign=middle;spacingTop=-1;spacingLeft=3;spacingRight=3;rotatable=0;labelPosition=right;points=[];portConstraint=eastwest;strokeColor=inherit;" vertex="1" parent="35LLrG8fKLti__jq1KWv-6">
          <mxGeometry y="110" width="230" height="8" as="geometry" />
        </mxCell>
        <mxCell id="35LLrG8fKLti__jq1KWv-9" value="+ &lt;font size=&quot;1&quot;&gt;BodyPart( xCoor : int, yCoor : int , tileSize: int )&lt;br&gt;+ tick()&lt;br&gt;+ draw( g : Graphics)&lt;br&gt;+ getxCoor() : int&lt;br&gt;+ setxCoor( xCoor : int)&lt;br&gt;+ getyCoor() : int&lt;br&gt;+ setyCoor( yCoor : int)&lt;br&gt;&lt;/font&gt;" style="text;strokeColor=none;fillColor=none;align=left;verticalAlign=top;spacingLeft=4;spacingRight=4;overflow=hidden;rotatable=0;points=[[0,0.5],[1,0.5]];portConstraint=eastwest;whiteSpace=wrap;html=1;" vertex="1" parent="35LLrG8fKLti__jq1KWv-6">
          <mxGeometry y="118" width="230" height="132" as="geometry" />
        </mxCell>
        <mxCell id="35LLrG8fKLti__jq1KWv-10" value="Screen" style="swimlane;fontStyle=1;align=center;verticalAlign=top;childLayout=stackLayout;horizontal=1;startSize=26;horizontalStack=0;resizeParent=1;resizeParentMax=0;resizeLast=0;collapsible=1;marginBottom=0;whiteSpace=wrap;html=1;" vertex="1" parent="WIyWlLk6GJQsqaUBKTNV-1">
          <mxGeometry x="360" y="120" width="220" height="480" as="geometry" />
        </mxCell>
        <mxCell id="35LLrG8fKLti__jq1KWv-11" value="- serialVersionUID: long&lt;br&gt;- WIDTH : int&lt;br&gt;- HEIGHT: int&lt;br&gt;- thread : Thread&lt;br&gt;- running : boolean&lt;br&gt;- b : BodyPart&lt;br&gt;- snake : ArrayList&amp;lt;BodyPart&amp;gt;&lt;br&gt;- apple : Apple&lt;br&gt;- apples : ArrayList&amp;lt; Apple&amp;gt;&amp;nbsp;&lt;br&gt;- r : Random&lt;br&gt;- xCoor : int&lt;br&gt;- yCoor : int&lt;br&gt;- size : int&lt;br&gt;- right : boolean&lt;br&gt;- left : boolean&lt;br&gt;- up : boolean&lt;br&gt;- down : boolean&lt;br&gt;- ticks : int" style="text;strokeColor=none;fillColor=none;align=left;verticalAlign=top;spacingLeft=4;spacingRight=4;overflow=hidden;rotatable=0;points=[[0,0.5],[1,0.5]];portConstraint=eastwest;whiteSpace=wrap;html=1;" vertex="1" parent="35LLrG8fKLti__jq1KWv-10">
          <mxGeometry y="26" width="220" height="284" as="geometry" />
        </mxCell>
        <mxCell id="35LLrG8fKLti__jq1KWv-12" value="" style="line;strokeWidth=1;fillColor=none;align=left;verticalAlign=middle;spacingTop=-1;spacingLeft=3;spacingRight=3;rotatable=0;labelPosition=right;points=[];portConstraint=eastwest;strokeColor=inherit;" vertex="1" parent="35LLrG8fKLti__jq1KWv-10">
          <mxGeometry y="310" width="220" height="8" as="geometry" />
        </mxCell>
        <mxCell id="35LLrG8fKLti__jq1KWv-13" value="+ Screen()&lt;br&gt;+ tick&lt;br&gt;+ paint( g : Grapghics)&lt;br&gt;+ start()&lt;br&gt;+ stop()&lt;br&gt;+ run()&lt;br&gt;+ keyPressed( e: KeyEvent)&lt;br&gt;+ keyReleased ( KeyEvent)&lt;br&gt;+ keyTyped( KeyEvent)" style="text;strokeColor=none;fillColor=none;align=left;verticalAlign=top;spacingLeft=4;spacingRight=4;overflow=hidden;rotatable=0;points=[[0,0.5],[1,0.5]];portConstraint=eastwest;whiteSpace=wrap;html=1;" vertex="1" parent="35LLrG8fKLti__jq1KWv-10">
          <mxGeometry y="318" width="220" height="162" as="geometry" />
        </mxCell>
        <mxCell id="35LLrG8fKLti__jq1KWv-14" value="Apple" style="swimlane;fontStyle=1;align=center;verticalAlign=top;childLayout=stackLayout;horizontal=1;startSize=26;horizontalStack=0;resizeParent=1;resizeParentMax=0;resizeLast=0;collapsible=1;marginBottom=0;whiteSpace=wrap;html=1;" vertex="1" parent="WIyWlLk6GJQsqaUBKTNV-1">
          <mxGeometry x="20" y="130" width="220" height="230" as="geometry" />
        </mxCell>
        <mxCell id="35LLrG8fKLti__jq1KWv-15" value="- xCoor : int&lt;br&gt;- yCoor : int&lt;br&gt;- width : int&lt;br&gt;- height : int" style="text;strokeColor=none;fillColor=none;align=left;verticalAlign=top;spacingLeft=4;spacingRight=4;overflow=hidden;rotatable=0;points=[[0,0.5],[1,0.5]];portConstraint=eastwest;whiteSpace=wrap;html=1;" vertex="1" parent="35LLrG8fKLti__jq1KWv-14">
          <mxGeometry y="26" width="220" height="74" as="geometry" />
        </mxCell>
        <mxCell id="35LLrG8fKLti__jq1KWv-16" value="" style="line;strokeWidth=1;fillColor=none;align=left;verticalAlign=middle;spacingTop=-1;spacingLeft=3;spacingRight=3;rotatable=0;labelPosition=right;points=[];portConstraint=eastwest;strokeColor=inherit;" vertex="1" parent="35LLrG8fKLti__jq1KWv-14">
          <mxGeometry y="100" width="220" height="8" as="geometry" />
        </mxCell>
        <mxCell id="35LLrG8fKLti__jq1KWv-17" value="&lt;font size=&quot;1&quot;&gt;+ Apple( xCoor : int , yCoor : int , tileSize : int)&lt;br&gt;+ tick&lt;br&gt;+ draw( g : Graphics)&lt;br&gt;+ getxCoor() : int&lt;br&gt;+ setxCoor(xCoor : int)&amp;nbsp;&lt;br&gt;+ getyCoor(): int&lt;br&gt;+ setyCoor(yCoor : int)&lt;br&gt;&lt;/font&gt;" style="text;strokeColor=none;fillColor=none;align=left;verticalAlign=top;spacingLeft=4;spacingRight=4;overflow=hidden;rotatable=0;points=[[0,0.5],[1,0.5]];portConstraint=eastwest;whiteSpace=wrap;html=1;" vertex="1" parent="35LLrG8fKLti__jq1KWv-14">
          <mxGeometry y="108" width="220" height="122" as="geometry" />
        </mxCell>
        <mxCell id="35LLrG8fKLti__jq1KWv-18" value="Frame" style="swimlane;fontStyle=1;align=center;verticalAlign=top;childLayout=stackLayout;horizontal=1;startSize=26;horizontalStack=0;resizeParent=1;resizeParentMax=0;resizeLast=0;collapsible=1;marginBottom=0;whiteSpace=wrap;html=1;" vertex="1" parent="WIyWlLk6GJQsqaUBKTNV-1">
          <mxGeometry x="680" y="130" width="160" height="110" as="geometry" />
        </mxCell>
        <mxCell id="35LLrG8fKLti__jq1KWv-19" value="- frame : JFrame" style="text;strokeColor=none;fillColor=none;align=left;verticalAlign=top;spacingLeft=4;spacingRight=4;overflow=hidden;rotatable=0;points=[[0,0.5],[1,0.5]];portConstraint=eastwest;whiteSpace=wrap;html=1;" vertex="1" parent="35LLrG8fKLti__jq1KWv-18">
          <mxGeometry y="26" width="160" height="26" as="geometry" />
        </mxCell>
        <mxCell id="35LLrG8fKLti__jq1KWv-20" value="" style="line;strokeWidth=1;fillColor=none;align=left;verticalAlign=middle;spacingTop=-1;spacingLeft=3;spacingRight=3;rotatable=0;labelPosition=right;points=[];portConstraint=eastwest;strokeColor=inherit;" vertex="1" parent="35LLrG8fKLti__jq1KWv-18">
          <mxGeometry y="52" width="160" height="8" as="geometry" />
        </mxCell>
        <mxCell id="35LLrG8fKLti__jq1KWv-21" value="+ Frame()&amp;nbsp;&lt;br&gt;+ main( args : String[] )" style="text;strokeColor=none;fillColor=none;align=left;verticalAlign=top;spacingLeft=4;spacingRight=4;overflow=hidden;rotatable=0;points=[[0,0.5],[1,0.5]];portConstraint=eastwest;whiteSpace=wrap;html=1;" vertex="1" parent="35LLrG8fKLti__jq1KWv-18">
          <mxGeometry y="60" width="160" height="50" as="geometry" />
        </mxCell>
        <mxCell id="35LLrG8fKLti__jq1KWv-23" style="edgeStyle=orthogonalEdgeStyle;rounded=0;orthogonalLoop=1;jettySize=auto;html=1;entryX=1.014;entryY=0.137;entryDx=0;entryDy=0;entryPerimeter=0;" edge="1" parent="WIyWlLk6GJQsqaUBKTNV-1" source="35LLrG8fKLti__jq1KWv-18" target="35LLrG8fKLti__jq1KWv-11">
          <mxGeometry relative="1" as="geometry" />
        </mxCell>
        <mxCell id="35LLrG8fKLti__jq1KWv-26" style="edgeStyle=orthogonalEdgeStyle;rounded=0;orthogonalLoop=1;jettySize=auto;html=1;exitX=0.5;exitY=0;exitDx=0;exitDy=0;endArrow=diamondThin;endFill=1;endSize=12;" edge="1" parent="WIyWlLk6GJQsqaUBKTNV-1" source="35LLrG8fKLti__jq1KWv-6">
          <mxGeometry relative="1" as="geometry">
            <mxPoint x="475" y="600" as="targetPoint" />
          </mxGeometry>
        </mxCell>
        <mxCell id="35LLrG8fKLti__jq1KWv-27" value="0..*" style="text;html=1;align=center;verticalAlign=middle;resizable=0;points=[];autosize=1;strokeColor=none;fillColor=none;rotation=-90;" vertex="1" parent="WIyWlLk6GJQsqaUBKTNV-1">
          <mxGeometry x="470" y="650" width="40" height="30" as="geometry" />
        </mxCell>
        <mxCell id="35LLrG8fKLti__jq1KWv-28" style="edgeStyle=orthogonalEdgeStyle;rounded=0;orthogonalLoop=1;jettySize=auto;html=1;entryX=1.018;entryY=0.41;entryDx=0;entryDy=0;entryPerimeter=0;endArrow=diamondThin;endFill=1;endSize=12;" edge="1" parent="WIyWlLk6GJQsqaUBKTNV-1">
          <mxGeometry relative="1" as="geometry">
            <mxPoint x="356.04" y="288.02" as="sourcePoint" />
            <mxPoint x="240.00000000000003" y="288.02" as="targetPoint" />
          </mxGeometry>
        </mxCell>
        <mxCell id="35LLrG8fKLti__jq1KWv-29" value="0..*" style="text;html=1;align=center;verticalAlign=middle;resizable=0;points=[];autosize=1;strokeColor=none;fillColor=none;" vertex="1" parent="WIyWlLk6GJQsqaUBKTNV-1">
          <mxGeometry x="230" y="260" width="40" height="30" as="geometry" />
        </mxCell>
        <mxCell id="35LLrG8fKLti__jq1KWv-30" value="1" style="text;html=1;align=center;verticalAlign=middle;resizable=0;points=[];autosize=1;strokeColor=none;fillColor=none;" vertex="1" parent="WIyWlLk6GJQsqaUBKTNV-1">
          <mxGeometry x="660" y="160" width="30" height="30" as="geometry" />
        </mxCell>
      </root>
    </mxGraphModel>
  </diagram>
</mxfile>
